<svg xmlns="http://www.w3.org/2000/svg" viewBox="0 0 1000 1000"><g clip-path="url(#a)"><path fill="#e6e6e6" d="M0 0h1000v1000H0z"/><svg xmlns="http://www.w3.org/2000/svg" xmlns:xlink="http://www.w3.org/1999/xlink" xmlns:svgjs="http://svgjs.dev/svgjs" transform="translate(50 50) scale(.21092)" viewBox="0 0 4267 4267"><svg viewBox="0 0 4267 4267" xmlns="http://www.w3.org/2000/svg" xml:space="preserve" fill-rule="evenodd" clip-rule="evenodd" stroke-linejoin="round" stroke-miterlimit="2"><path d="M2052 3094c-18-5-35-8-53-9h-33c-34 2-51-4-44 29 6 27 14 53 19 79l10 49c-13 11-69 15-86 18-52 8-105 20-150 49a265 265 0 0 0-86 98c-1 3-7 8-4 8 20 5 133-20 165-23 96-11 201-5 294 18 79 21 161 49 232 89a398 398 0 0 1 68 47c16-8 0-80-4-93l-9-28c37-13 119 26 154 40 4 2 52 22 54 21 12-7-4-71-8-81-42-97-228-143-323-157-38-6-81-4-117-22-43-22-75-77-92-120" fill="#fec168"/><path d="M1730 3324a116 116 0 0 0-74 57c-2 3-10 15-10 17 6 10 26 9 35 9 32-2 106-7 71-55-6-9-13-16-22-23m627 66c-97 10-70 84-14 133 13 12 45 42 61 16 6-12 0-34-1-48" fill="#fe9866"/><path d="M2141 3322c62 23 131 48 174 101 15 20 31 41 43 63l12 20 8 12c10-11-1-51-6-64-26-78-81-99-153-126" fill="#fff" fill-opacity=".7"/><path d="M2550 3358c-28 11-72 26-79 61-9 46 62 58 92 38" fill="#fe9866"/><path d="M2002 3102c11 49 28 109 69 143 40 32 103 31 151 34 65 4 132 21 189 51 37 20 71 43 98 74l34 42c1 1 9 11 10 10 18-6 5-48 0-59l-9-16c-38-58-113-76-176-96-31-10-62-21-94-29-38-11-115-22-149-41" fill="#fff" fill-opacity=".7"/><path d="M2157 3409c-60-41-133-58-205-63-41-3-83 3-124-5-13-2-36-4-42-17-3-6-3-13-2-19l3-9 1-3h-4c-40-2-82 31-110 58-15 15-48 51-1 50h14c15-1 14-2 29-4a1285 1285 0 0 1 222-9c22 1 43 1 65 6" fill="#cd2d00" fill-opacity=".3"/><path d="M1871 3114c14 54 39 104 62 155a29 29 0 0 0 53-25c-22-48-46-93-59-145a29 29 0 0 0-56 15Z" fill="#1f1d33"/><path d="m2369 3575 11 11c6 3 11 5 16 4 8 0 16-2 23-11 10-12 15-30 15-49-1-30-12-66-20-84-5-11-11-22-19-32-9-14-21-26-33-38a260 260 0 0 0-217-77 13 13 0 0 0 0 27c37 3 70 11 100 25 29 14 55 33 78 61l23 28c6 9 11 18 15 28l10 33-5-3-35-22a707 707 0 0 0-196-84c-54-16-112-27-171-33a687 687 0 0 0-230 18l-69 19a143 143 0 0 1 43-48c34-25 74-41 116-49 44-10 89-12 131-8a29 29 0 0 0 5-58c-48-4-99-2-148 8-50 10-98 29-139 58a196 196 0 0 0-72 93l-12 39v15c1 9 5 14 8 17 7 6 14 9 22 8 7 0 15-1 22-3l33-11 75-22a528 528 0 0 1 210-15 887 887 0 0 1 341 107l34 21 19 14 16 13Zm0 0-3-3 3 3Z" fill="#1f1d33"/><path d="M2337 3369c-48 4-91 44-92 104a29 29 0 0 0 59 0c0-26 17-44 38-46a29 29 0 0 0-5-58Zm198-37c-49 4-91 44-92 104a29 29 0 0 0 58 0c1-26 18-44 39-46a29 29 0 0 0-5-58Zm-836 12c21 3 37 23 35 49a29 29 0 0 0 59 3c3-59-37-102-85-110a29 29 0 0 0-9 58Z" fill="#1f1d33"/><path d="m2558 3444-17-6c-46-14-83-27-156-31a29 29 0 0 0-3 59c66 3 100 16 142 28l47 17 17 6c17 4 26-6 29-9 4-5 8-14 8-26 0-16-8-46-10-52-21-56-67-102-116-135a524 524 0 0 0-280-90c-24-1-51-2-75-8-19-4-37-12-48-29-14-20-19-46-25-69a29 29 0 0 0-56 16c8 29 15 61 32 86 21 30 51 45 83 53 28 7 58 8 85 10 25 1 49 5 74 9 64 10 123 36 177 71 38 25 74 58 92 100Z" fill="#1f1d33"/><path d="M1632 3163a337 337 0 0 0-86-9c-34 2-50-3-44 29 6 27 14 53 19 79l11 49c-13 11-70 15-87 18-52 8-105 20-149 50a265 265 0 0 0-87 97c-1 3-6 8-4 9 20 4 133-21 165-24 96-11 201-5 294 19 80 20 161 48 232 88 21 12 41 25 60 41l8 7c17-9 1-81-4-94l-9-28c37-13 119 26 154 41 4 1 52 21 54 20 12-6-4-71-8-81-42-97-227-143-322-157-39-5-82-3-118-22-43-22-74-77-92-120" fill="#fec168"/><path d="M1310 3393a116 116 0 0 0-74 57l-10 17c6 10 26 10 35 9 32-2 106-7 71-55-6-9-13-16-21-23m626 66c-97 10-69 84-14 133 14 12 45 43 61 16 7-12 0-34-1-48" fill="#fe9866"/><path d="M1721 3391c62 23 131 48 174 102 16 19 32 41 44 62l11 20 9 13c9-12-2-52-7-64-26-79-80-99-153-127" fill="#fff" fill-opacity=".7"/><path d="M2130 3428c-28 10-72 25-79 60-9 46 62 58 92 38" fill="#fe9866"/><path d="M1582 3171c11 49 21 112 62 145 15 13 41 18 62 23 32 7 67 8 97 9 64 4 131 21 189 51 36 20 70 43 97 75l35 41c0 1 8 11 9 10 18-6 5-48 0-59l-9-15c-38-59-112-77-176-97-31-10-62-21-94-29-38-10-117-23-151-42" fill="#fff" fill-opacity=".7"/><path d="M1738 3478c-61-41-133-57-205-63-42-3-84 3-125-5-13-2-36-4-42-17-3-6-3-13-2-19l3-9c0-1 3-3 1-3h-3c-41-2-83 31-111 58-15 15-48 51-1 51l14-1c15-1 14-2 29-4a1285 1285 0 0 1 222-8c22 0 44 0 65 6" fill="#cd2d00" fill-opacity=".3"/><path d="M1451 3183c14 55 39 104 62 155a29 29 0 0 0 53-25c-22-47-46-93-59-145a29 29 0 0 0-56 15Z" fill="#1f1d33"/><path d="m1949 3645 11 11c6 3 11 4 17 4 7-1 15-3 22-12 10-12 15-29 15-49a236 236 0 0 0-38-116c-10-13-22-26-34-38a260 260 0 0 0-217-77 13 13 0 0 0 0 27c37 3 70 11 100 25 29 14 55 33 78 61l23 28c6 9 11 18 15 28l10 33-5-3-35-22a707 707 0 0 0-195-84c-55-15-113-27-172-33a687 687 0 0 0-230 18l-69 20a143 143 0 0 1 43-49c34-25 74-40 116-49 44-9 89-11 131-8a29 29 0 0 0 5-58c-48-4-99-2-148 8-50 10-98 29-139 58a196 196 0 0 0-71 93c-5 10-11 31-13 40v14c1 9 5 14 9 17 6 6 13 9 21 9l22-4 33-11 75-22a528 528 0 0 1 210-15 887 887 0 0 1 341 107l34 21 19 14 16 14Zm0-1-3-3 3 3Z" fill="#1f1d33"/><path d="M1917 3438c-48 4-91 44-92 104a29 29 0 0 0 59 1c0-26 17-45 38-47a29 29 0 0 0-5-58Zm198-37c-48 4-91 44-92 104a29 29 0 0 0 59 1c0-26 17-45 38-47a29 29 0 0 0-5-58Zm-836 12c21 4 37 23 35 49a29 29 0 0 0 59 4c3-60-37-103-85-110a29 29 0 0 0-9 57Z" fill="#1f1d33"/><path d="m2138 3513-17-5c-46-14-83-28-156-31a29 29 0 0 0-3 58c67 3 100 16 142 28l48 17 16 7c17 4 26-7 29-10 4-5 9-13 9-26 0-16-9-46-11-52-20-56-67-102-116-134-61-41-128-69-201-80-26-5-52-8-79-10-24-2-50-3-75-9-19-4-36-12-48-29-14-20-18-46-25-69a29 29 0 0 0-56 16c8 29 16 61 33 86 20 30 50 45 83 53 27 7 57 8 84 10a466 466 0 0 1 252 80c37 25 73 58 91 100Z" fill="#1f1d33"/><path d="M2507 1644a725 725 0 0 0-501 162 1055 1055 0 0 0-408 617 616 616 0 0 0-8 306c50 192 204 177 367 161 107-10 215-22 307-83a718 718 0 0 0 236-315c61-148 54-315 52-472" fill="#f9f9f7"/><path d="M2476 2030c56 238 20 542-188 697-69 52-142 82-224 109-45 15-103 18-146 36-4 2 8 3 12 4 17 5 18 5 36 7 35 4 71 2 106-2 76-10 188-69 255-107 51-29 90-70 125-117 97-131 119-243 124-404 1-56 3-119-13-173" fill="#fff"/><path d="M991 2457c-73 55-144 112-211 174-54 49-248 247-184 328 38 48 135 18 181-4 15-7 38-27 55-29 7 0 87 56 125 57 62 1 123-23 176-53 4-2 34-24 41-21 44 15 71 48 122 49 144 3 311-129 413-222 12-11 41-27 48-41 3-8-15-7-22-10-22-10-42-21-57-40-17-20-26-44-26-71-1-8 9-24 1-25-49-6-144 127-215 81-34-21-46-68-54-104l-4-36c-14-2-41 9-56 11-37 7-74 10-112 10" fill="#6c799b"/><path d="M1787 2689c2 28 5 55 13 82 3 11 53 105 54 105 51 29 131 21 186 20 29-1 94-16 96 28 2 29-9 57-21 82-11 21-26 42-41 60-23 25-51 36-84 25-8-2-20-10-28-9-22 0-41 36-79 29-19-4-38-15-53-27l-11-10c-43 4-78 44-114 63a93 93 0 0 1-71 10c-6-2-16-9-24-8-26 6-41 33-69 34-16 1-38-19-43-18-11 1-22 9-34 11-67 11-100-34-120-95-8-22-22-61-8-83 25-41 160-91 208-114l243-185Zm-282-1662-29 35c-76 97-187 327-111 447 26 41 75 47 117 32 3-2 18 35 20 39 24 65 69 208 40 275-69 159-322 230-435 371-27 34-88 158-60 203 83 133 272-14 300-3 7 3 65 125 88 146 34 30 77 41 120 31 9-2 46-22 51-20 48 26 62 85 125 84 178-2 363-257 400-415 18-77 6-156 19-235 7-40 23-86 53-116 3-3 40-25 40-27 0-23-25-58-33-81l-7-177c34-48 79-84 115-130 29-39 44-86 73-125 50-66 203-180 282-201 33-10 66 17 96 12 5-2-4-58-5-64a523 523 0 0 0-359-380 637 637 0 0 0-424-7c-97-65-234-113-325-62a67 67 0 0 0-20 103c11 13 27 24 42 32l21 11 6 2c-83-32-191 4-255 60-104 90-63 160 55 160Zm-472 1388c-51-34-294-136-344-95-31 24-22 82-7 112 2 3 9 8 5 9-36 10-72-5-88 41-15 40 91 166 112 169 38 5 185-124 224-153l98-83Z" fill="#afbccc"/><path d="M2681 1141c-52-274-318-407-579-373-38 5-135 32-167 25-22-4-41-22-60-34-32-19-63-37-98-49-34-12-67-19-103-12-12 2-23 5-33 10-4 2-13 11-12 7 10-27 34-45 60-54 114-37 169 50 269 58 36 3 71-8 106-14 41-7 84-12 127-10 207 7 530 188 529 424" fill="#e3ecfd"/><path d="M800 2599c-47-21-106-53-134-99-11-19 6-44 19-57l3-2c-8-3-21 0-29 1-47 7-57 45-41 88 18 49 63 76 106 100" fill="#7f94af"/><path d="M2117 1947c-15 134-23 284-90 405-22 41-52 78-80 115-40 52-96 97-147 136l-51 38-18 13-7 4c50 6 97-15 141-35 167-74 245-237 274-411 7-44 8-98 7-143" fill="#e5e7e8"/><path d="M1404 2929c0 11 2 22 4 33 14 68 55 20 92 52 20 19 13 52 32 72 15 15 32 24 53 23h1c3 3 3 13 3 16 0 9-4 17-8 25-21 39-52 30-78 2-4-5-12-18-18-21-9-4-28 41-66 36-67-9-79-139-85-188m527-95c-1 31-4 122 25 142 16 11 40 6 57 0 7-2 13-6 19-11 1-1 5-6 5-4 4 54-40 132-101 93-44-28-64-93-73-141m-190-1954a732 732 0 0 0-167 314c-6 25-25 92 4 111 23 15 78-76 122-45 43 30 21 102 17 144-9 119 80 235 42 351-53 159-289 225-406 350-23 25-49 58-57 93-13 56 36 93 86 102 18 3 37 4 55 2l21-4 7-1c-20 15-50 19-73 22-131 22-201-97-149-216 12-29 29-58 52-80 26-25 57-38 87-55 96-55 255-128 277-249 13-73-20-141-26-213-2-28-2-56-2-84l2-30c0-4 4-11 1-11-30-2-68 61-110-1-90-131 29-343 115-447m95 1202-38 56-30 44-20 29c-19 31-71 115-24 144 29 19 66 11 97 3l31-8 13-4 3-1c-1 14-68 42-77 45-59 18-151 38-156-50a149 149 0 0 1 28-93c18-29 43-52 67-77" fill="#7f94af"/><path d="M1373 2402c-63 23-245 69-231-52 9-77 78-154 130-206l50-50 16-16c4-4 15-11 10-11-33 6-70 36-96 56a615 615 0 0 0-189 220c-11 22-23 47-25 72-6 84 98 92 156 79 29-6 59-15 86-26m696 31c-47 37-99 73-156 93-20 7-53 16-69-4-33-41 1-118 21-158l28-44 13-21c2-2 6-6 4-6-20 6-44 35-57 49a424 424 0 0 0-118 180c-14 67 67 91 117 77 24-6 48-16 70-26" fill="#7f94af"/><path d="M3568 2301c8-79 4-156-32-228-44-90-125-148-199-211-108-91-280-231-350-353-70-123-160-353-334-345-123 6-179 135-244 219-32 40-74 64-111 98-72 66-145 178-96 277 20 40 52 70 83 101 154 156 353 256 550 349 154 74 313 89 482 81 43-2 86 0 128-5" fill="#fec168"/><path d="M3521 2284c13-279-274-399-447-563-70-67-140-144-192-226-33-52-58-109-93-159-31-46-75-119-138-117-28 1-56 10-82 21l-22 10c-5 3-16 11-13 7 52-81 201-97 267-24 40 44 67 103 97 154 39 69 90 135 146 192 168 174 491 341 523 603 5 39-5 74-9 112" fill="#ffefd7"/><path d="M2316 1503c-218 152-139 275 40 422 215 177 500 328 779 368a863 863 0 0 0 366-32c3-6-64-62-88-76-114-72-245-101-371-143-313-103-501-254-688-527" fill="#ff9158"/><path d="M2327 1507c-29 22-63 46-82 77-41 66-6 124 36 177 84 105 205 176 316 249 36 23 73 44 110 65a2142 2142 0 0 0 385 184 988 988 0 0 0 119 34l7 1 4 1c-94 19-221-21-308-51-207-72-399-183-568-324l-51-43c-57-49-143-169-103-260 17-39 6-53 37-82" fill="#fec168"/><path d="M1202 2522c-68 64-143 117-218 172-63 45-126 89-196 124-29 14-69 34-103 30-11-1-18-9-24-18-2-3-2-10-6-9-29 11-55 46-66 75-33 84 56 91 120 77 37-8 73-25 106-41 165-79 296-200 422-329 33-34 70-65 102-101" fill="#586689"/><path d="M1434 2639c-73 59-152 112-233 160-32 19-67 40-103 52-26 8-54 18-81 16-62-4-73-36-124 16-8 8-19 17-23 27-11 24 22 49 40 55 49 18 116 2 162-14 134-45 251-136 362-220 40-30 85-56 121-91m148 49c-56 48-126 84-190 119-43 23-86 53-134 64-19 4-39 6-57 5-35-3-59-15-92 5-7 4-17 10-21 16-6 13 20 30 27 34 37 21 84 21 124 12 85-19 222-74 294-120 40-25 76-60 113-90" fill="#586689"/><path d="M2798 1161c-22-426-488-599-854-486a42 42 0 0 0 24 79c318-98 728 42 747 411a42 42 0 0 0 83-4Z" fill="#1f1d33"/><path d="M1972 682c-79-56-150-82-208-89-44-5-81 0-109 12-45 18-71 51-74 88-3 30 8 68 45 99 16 13 35 25 61 35 25 10 56 17 93 22a22 22 0 0 0 12-43c-19-8-34-17-49-25-26-15-44-30-59-44l-15-21c-3-6-4-11-2-16s6-8 11-11c11-6 25-10 42-11 51-3 123 16 205 72a42 42 0 0 0 47-68Z" fill="#1f1d33"/><path d="M1790 811a717 717 0 0 0-152-50c-42-6-80-6-113-1-93 12-151 59-181 107-21 34-28 71-23 104 12 68 77 133 189 100a336 336 0 0 0 96-53c18-15 36-32 55-53a13 13 0 0 0-15-20 667 667 0 0 1-118 41l-35 6c-15 2-28 2-39 0-25-2-41-16-44-35-2-18 6-39 22-58 21-25 57-45 108-56a766 766 0 0 1 242-2 15 15 0 0 0 8-30Z" fill="#1f1d33"/><path d="M1470 1006c-159 180-190 342-171 444 9 49 29 87 54 109 43 39 99 46 140 3 13-13 25-29 31-53 6-19 9-40 9-67a14 14 0 0 0-28-6c-12 25-26 42-40 56l-14 11c-12 9-25 7-35-2s-19-23-25-41c-8-24-11-54-9-89 7-84 49-191 151-311a42 42 0 0 0-63-54Zm385 1905c139 35 271 17 384-37a645 645 0 0 0 280-266 706 706 0 0 0 57-560 42 42 0 0 0-79 25 620 620 0 0 1-48 495 570 570 0 0 1-243 239c-98 49-213 66-335 38a34 34 0 0 0-16 66Zm-27-625c-50 38-101 80-142 131-30 35-53 75-69 118-16 51-14 98 9 129 17 22 44 39 86 43 39 3 77-3 114-16 52-19 100-50 138-82a613 613 0 0 0 212-415c4-85-10-170-48-246a16 16 0 0 0-29 11c13 43 18 86 18 130a671 671 0 0 1-89 306c-33 56-73 106-121 146-26 21-57 43-91 59-31 14-64 23-96 20-14-1-24-2-28-11-5-13-2-31 3-50 10-36 26-70 47-101 33-51 74-98 115-140a22 22 0 0 0-29-32Z" fill="#1f1d33"/><path d="M1574 2230c-27 16-55 32-82 52s-53 42-75 67c-32 36-56 77-71 122-16 50-12 100 13 134 18 25 46 43 89 47 31 2 65-2 98-12 45-13 89-36 124-61a42 42 0 0 0-47-68c-24 16-53 31-83 42-29 10-58 16-85 13-15-1-25-6-30-16-6-15-3-34 3-53 10-35 29-67 52-96 17-24 37-46 57-68l64-67a23 23 0 0 0-27-36Z" fill="#1f1d33"/><path d="M1501 1459a291 291 0 0 0-34 137c-1 27 2 53 6 78l10 48c11 51 21 98-8 146-14 25-35 44-57 61-40 30-86 53-127 78a906 906 0 0 0-213 185c-44 53-78 112-96 170-15 51-6 90 14 118 28 40 84 62 148 62 55 0 125-20 189-52 62-31 120-73 156-110a35 35 0 0 0-49-50 560 560 0 0 1-295 128c-29 0-56-5-73-19-13-11-15-28-8-52 19-60 60-119 109-171 51-54 110-101 164-134 43-27 92-51 133-83 32-24 60-52 80-87 20-34 29-69 29-103 1-38-6-76-17-115l-18-65c-7-25-13-51-16-79-2-25-3-51 3-81a16 16 0 0 0-30-10Z" fill="#1f1d33"/><path d="M973 2414a2010 2010 0 0 0-379 366c-18 23-51 73-61 118-10 43 0 82 38 106 35 21 75 24 116 18 52-9 105-36 143-56 189-104 367-271 522-418a38 38 0 0 0-52-54c-150 143-322 305-506 406-27 15-63 33-99 43-30 8-60 12-85-3-5-3-6-8-5-14 0-8 2-17 6-27 11-29 31-59 43-74 100-134 233-248 365-352a38 38 0 0 0-46-59Z" fill="#1f1d33"/><path d="M1017 2367c-42-25-111-59-179-81-51-17-101-26-139-23-40 4-68 25-81 53-11 26-12 60 5 91 12 20 28 38 48 51 26 18 56 30 84 39a19 19 0 0 0 17-33c-17-13-34-28-50-45-13-13-23-29-29-46-3-7-2-14 1-20 2-3 6-4 11-4 29-2 67 7 106 20 62 20 126 49 165 71a42 42 0 0 0 41-73Z" fill="#1f1d33"/><path d="M696 2404c-32-12-67-11-94-2-18 6-32 18-42 31-18 25-24 61 1 108 15 29 35 53 58 75 32 31 71 55 109 76a42 42 0 0 0 40-73c-27-15-54-32-78-52-22-19-41-40-55-66-3-6-6-12-6-17v-6c12-10 32-15 51-12a32 32 0 0 0 16-62Zm113 567c94 82 206 60 308 11 113-55 250-156 345-237l149-132a38 38 0 0 0-49-57l-149 132c-90 77-221 174-329 226-74 36-157 61-226 0a38 38 0 0 0-49 57Z" fill="#1f1d33"/><path d="M1139 2947c69 50 168 53 248 34a816 816 0 0 0 361-215l87-84a38 38 0 0 0-51-54l-87 84a739 739 0 0 1-327 196c-60 14-135 15-187-22a38 38 0 0 0-44 61Zm833 167c52 26 95 12 129-21 40-38 65-107 77-149l11-48a35 35 0 0 0-69-13l-10 43c-8 27-22 71-45 102-16 20-35 36-61 23a35 35 0 0 0-32 63Z" fill="#1f1d33"/><path d="M1781 3050c16 47 55 90 97 99 31 7 66-1 97-39a126 126 0 0 0 27-74l-2-30a23 23 0 0 0-45-5c-4 13-10 24-16 36-5 10-11 19-19 26-11 14-23 17-34 12-17-9-31-29-38-49a35 35 0 0 0-67 24Z" fill="#1f1d33"/><path d="m1828 2781-12 43a1353 1353 0 0 0-17 76l-10 49a378 378 0 0 1-61 135 96 96 0 0 1-49 37c-16 4-32 1-46-13a35 35 0 0 0-50 50c27 28 59 38 90 36 42-2 85-29 113-66a399 399 0 0 0 49-84 459 459 0 0 0 36-196c-1-23-5-44-7-65a18 18 0 0 0-36-2Z" fill="#1f1d33"/><path d="M1442 3071a370 370 0 0 0 6 64c7 24 20 45 35 59 16 16 35 23 54 25 25 1 54-10 79-47 13-20 23-42 26-66l2-20-5-45a22 22 0 0 0-45-3c-5 16-11 29-17 44l-9 26-13 23c-3 6-7 10-11 12-2 2-4 3-6 2-6-3-11-8-16-15-4-5-9-11-12-18l-10-22-9-26a25 25 0 0 0-49 7Z" fill="#1f1d33"/><path d="M1296 2972c0 15 2 31 4 46 4 37 18 102 47 142 26 35 63 54 114 36 13-5 25-12 37-21a35 35 0 0 0-43-57c-5 5-11 9-18 11-21 8-33-8-42-25a460 460 0 0 1-29-135 35 35 0 0 0-70 3Zm2258-605a240 240 0 0 0 64-178c-3-62-28-123-64-179-29-45-65-85-104-121-84-78-184-141-265-223-42-43-87-88-128-134-28-31-53-62-76-94-35-49-68-115-105-173-30-46-63-87-100-113-67-47-150-58-258 25a374 374 0 0 0-80 82 42 42 0 0 0 67 51 411 411 0 0 1 64-66c67-51 116-52 157-23 37 26 67 71 95 118 31 52 60 106 89 148 25 35 53 69 82 102 42 48 88 94 132 138 81 82 182 146 268 225 34 32 65 66 91 105a335 335 0 0 1 54 228c-3 20-7 40-16 60a20 20 0 0 0 33 22Z" fill="#1f1d33"/><ellipse cx="2567.4" cy="1389.1" rx="40.7" ry="63.7" fill="#1f1d33" transform="matrix(1.00843 .45034 -.3911 .87576 582 -1017)"/><path d="M2292 1453c-24 25-55 46-81 70-34 29-62 62-74 105-19 70 6 141 54 204 63 82 165 152 230 192 171 107 392 234 616 296 155 42 312 54 458 10a42 42 0 0 0-24-80 739 739 0 0 1-412-11c-216-59-429-182-594-286-58-36-151-98-208-172-31-41-52-85-40-130 8-28 27-47 49-66 28-25 60-47 86-74a42 42 0 0 0-60-58Z" fill="#1f1d33"/><path d="M3561 2343c-20-84-73-142-139-185-46-30-99-53-152-72-55-20-108-35-152-53-118-48-239-100-351-166-73-43-142-94-202-153-31-29-97-90-144-153-17-22-32-44-41-65-5-12-8-24-6-34 2-9 8-16 14-23 17-18 38-35 52-52l68-82a42 42 0 0 0-67-49l-63 80c-16 21-42 40-59 64-11 15-18 31-21 49-6 36 10 81 41 127 51 74 140 153 178 188 65 62 139 114 217 160 114 67 238 121 360 169 44 18 99 34 155 53 49 16 99 35 143 61 56 34 102 79 121 148a24 24 0 0 0 48-12Z" fill="#1f1d33"/><circle cx="2084.9" cy="1243.3" r="108.8" fill="#fff" transform="translate(-1759 -1079) scale(1.86268)"/><path d="M2124 1020a217 217 0 1 0 1 434 217 217 0 0 0-1-434Zm0 29a188 188 0 1 1 0 376 188 188 0 0 1 0-376Z" fill="#1f1d33"/><circle cx="2084.9" cy="1243.3" r="108.8" fill="#1f1d33" transform="translate(-1140 -721) scale(1.57762)"/><circle cx="2084.9" cy="1243.3" r="108.8" fill="#fff" transform="matrix(.47762 0 0 .65693 1203 378)"/><path d="M3101 3295c-60 12-118 32-177 49-51 14-115 30-152 71-44 50-8 155 55 176 34 11 69 0 103-8 44-10 88-18 132-30 36-10 72-19 107-31 9-3 29-4 36-11 11-10-4-73-6-82-5-20-29-123-38-142" fill="#a15032"/><path d="M3161 3316c-44 7-87 18-130 27-25 6-51 10-76 17l-48 16-52 16c-11 4-20 11-31 5-19-10 7-26 16-32a217 217 0 0 1 37-19c69-31 149-50 225-51" fill="#cd8266"/><path d="M3161 3315c-44 8-87 18-130 28-26 5-51 10-76 17l-48 15c-18 5-35 10-52 17l-16 6c-5 1-9 2-15-1-3-2-5-4-6-7s1-7 4-10c5-6 14-12 19-15a209 209 0 0 1 36-18 577 577 0 0 1-37 17c-6 4-17 11-22 19-1 2-2 5-1 8l7 7c5 3 10 2 16 1l15-6c17-7 35-12 52-17l48-15c25-7 51-12 76-17 44-10 86-20 130-28a1 1 0 0 0 0-1Z" fill="none"/><path d="M3193 3457c-33 13-67 20-101 29l-151 39-65 16c-6 1-18 2-22 7-34 44 55 46 75 43 26-2 51-10 76-16l74-17c36-9 70-23 105-35m-343-90c63-13 124-32 186-47 40-10 96-19 136-28a8 8 0 0 0-3-16c-41 9-96 19-136 29-63 15-123 34-186 46a8 8 0 0 0 3 16Z" fill="#8d3c1e"/><path d="M2966 3403c9-1 16 2 23 5l17 6c18 5 39 2 56-3 11-3 22-8 31-16 7-6 10-14 16-20s16-9 24-11a8 8 0 0 0-3-16c-12 3-24 7-32 16-6 6-9 13-16 19s-16 10-25 13c-14 4-32 7-46 3l-21-8c-7-3-15-5-25-4a8 8 0 0 0 1 16Zm-98 90c30-7 58-18 88-25l30-4 58-11c25-6 49-16 73-23 20-7 40-11 60-17a8 8 0 0 0-4-15l-61 16c-24 8-47 18-71 23l-57 12c-11 1-21 1-32 4-29 7-58 17-88 24a8 8 0 1 0 4 16Zm-6 57c42-12 84-26 126-36l38-6 48-11c28-7 56-17 85-25l22-7a8 8 0 0 0-3-16l-24 8-84 25-46 10c-13 2-27 3-39 6-43 11-85 25-128 37a8 8 0 1 0 5 15Z" fill="#8d3c1e"/><path d="M2771 3381c-13 23-24 46-28 73-6 35 1 71 23 100 74 102 104-101 27-158" fill="#da7652"/><path d="m2794 3491-1-1-1-7a6 6 0 1 0-12 3l2 8 7 11c2 2 4 2 7 2 2-1 4-2 6-5l2-3 1-6c2-10-2-23-7-31-6-8-15-12-24-5-7 6-9 16-9 24a84 84 0 0 0 24 60c5 3 10 5 15 2 5-2 8-6 10-10 4-6 5-13 5-19 2-20 1-44-10-62-2-5-6-10-10-14-3-4-7-6-12-7-5 0-10 0-14 4a6 6 0 1 0 8 8h4c3 0 5 2 7 5l7 10c10 16 10 37 9 56 0 4-1 9-4 13-1 3-2 5-5 6l-2-1-3-2-7-10c-7-11-11-25-10-38 0-6 0-12 5-16 2-2 5 0 6 2 4 7 7 15 6 23Z" fill="#bb5834"/><path d="M3122 3255c-78 17-155 35-232 56-29 8-67 17-99 32-25 11-47 26-61 45-29 38-31 107-8 160 16 38 44 67 78 73 36 7 77 0 112-7 85-15 166-42 249-65a27 27 0 0 0-15-52c-81 23-160 49-243 64-29 5-63 13-92 7-19-3-31-21-39-41-15-35-18-81 1-106 12-16 33-27 55-35 26-10 54-16 76-22 76-21 152-39 229-57a27 27 0 0 0-11-52Z" fill="#1f1d33"/><path d="M2769 3422c4-6 8-11 13-12 9-1 17 6 24 17a173 173 0 0 1 16 136c-2 4-4 8-8 9-3 1-7 1-13-1a21 21 0 0 0-13 39c17 6 30 5 41 1 24-9 37-37 40-67 6-46-2-102-29-141-14-21-34-33-52-34-20-2-40 7-55 32a21 21 0 0 0 36 21Z" fill="#1f1d33"/><path d="M3430 3292c60 11 119 32 178 48 51 15 115 30 152 71 44 50 7 155-55 176-34 11-69 1-103-7-44-10-89-18-132-30-36-10-72-19-108-31-8-3-29-5-36-11-11-10 5-73 7-82 5-21 29-124 38-143" fill="#a15032"/><path d="m3371 3312 130 27c25 6 51 11 76 18l48 15 52 16c11 4 20 11 31 6 19-11-7-27-17-33a217 217 0 0 0-36-18c-70-32-149-51-225-52" fill="#cd8266"/><path d="M3370 3312c44 8 87 19 131 28 25 5 51 10 76 17l48 16 52 16 15 6c5 2 10 2 16-1 4-2 6-5 7-7 0-3 0-5-2-8-4-7-16-15-21-18a211 211 0 0 0-37-19 578 578 0 0 0 36 20c5 3 14 8 19 14 3 4 5 7 4 11-1 2-3 4-7 6-5 3-10 3-15 1l-15-6-52-16-48-16c-25-7-51-12-76-17-44-9-87-20-130-27a1 1 0 0 0-1 0Z" fill="none"/><path d="M3339 3453c33 13 66 20 101 29l150 40 66 15c5 1 18 2 22 8 34 43-56 45-75 43-26-3-51-11-77-17-24-6-49-10-73-17-36-9-70-23-105-35m346-106c-63-12-124-31-186-46-40-10-96-19-136-28a8 8 0 0 0-3 15l135 28c63 16 124 35 187 47a8 8 0 1 0 3-16Z" fill="#8d3c1e"/><path d="M3567 3383c-10 0-18 2-26 5l-20 7c-15 4-32 1-46-3-10-2-19-6-26-13-6-5-9-13-15-19-8-8-20-13-32-15a8 8 0 0 0-3 15c8 2 17 5 23 11 6 7 10 14 17 20a115 115 0 0 0 86 20l18-7c7-3 14-5 22-5a8 8 0 0 0 2-16Zm101 91c-30-7-59-18-89-25l-31-4-57-11c-24-6-47-16-71-23-20-7-41-11-61-17a8 8 0 0 0-5 15c20 7 41 11 61 17 24 8 48 17 72 23 20 5 39 9 59 12 10 1 20 1 30 4 29 7 58 17 88 24a8 8 0 1 0 4-15Zm6 58c-42-13-84-27-127-37-13-4-26-4-39-7-15-2-31-6-46-10-28-7-56-16-84-25l-24-7a8 8 0 0 0-4 15l23 8 85 24 48 11c12 2 25 3 37 6 43 10 85 25 127 37a8 8 0 1 0 4-15Z" fill="#8d3c1e"/><path d="M3761 3377c13 23 23 47 28 73 6 36-2 72-23 101-74 102-105-102-27-158" fill="#da7652"/><path d="M3738 3487c-1-7 2-16 6-22 1-3 4-5 6-3 4 4 5 11 5 16 1 13-4 27-11 39l-7 10-3 2h-2l-4-5c-3-4-4-10-4-14-1-18-1-39 8-56l7-10 8-5 4 1a6 6 0 0 0 8-9c-4-4-9-4-14-3s-9 3-12 6c-5 4-8 10-11 14-10 19-11 42-10 63 1 5 2 13 5 18s6 9 10 11c6 2 11 1 16-3s9-10 11-14c8-13 13-30 13-46-1-8-3-18-10-24-8-7-18-3-23 5-6 9-9 21-7 32a25 25 0 0 0 3 8c3 5 6 5 8 5 3 0 5-1 7-4 2-2 4-6 4-9l3-8a6 6 0 0 0-12-3l-2 8Z" fill="#bb5834"/><path d="M3398 3304c77 17 154 35 230 56 22 6 50 13 76 23 22 8 43 18 55 34 19 25 16 71 1 106-8 21-21 38-39 42-29 5-63-2-92-8-83-14-162-41-243-64a27 27 0 0 0-15 52c83 24 163 51 249 66 35 6 76 14 111 7s63-35 79-74c22-52 21-122-8-159-15-20-36-34-61-46-33-14-70-23-99-31-77-21-154-39-232-57a27 27 0 0 0-12 53Z" fill="#1f1d33"/><path d="M3799 3397c-15-25-36-33-55-32-19 2-38 13-53 34-26 39-34 95-28 142 3 30 16 57 39 66 11 4 25 5 42 0a21 21 0 0 0-13-40c-6 2-10 3-14 1-3-1-5-5-7-8a173 173 0 0 1 16-137c7-10 15-18 24-16 5 1 9 5 13 12a21 21 0 0 0 36-22Z" fill="#1f1d33"/><path d="M3343 3310c-17-10-36-16-57-18-79-10-107 19-126 91-9 31-15 64-19 96-6 41-17 97 6 134 37 60 206 82 244 13 38-70 12-155-7-226-6-25-11-49-21-72" fill="#a15032"/><path d="m3213 3310-5 54-1 14-2 87-1 18v19c-1 4 3 9 8 9s9-3 9-8l2-19 1-19c1-28 0-57 2-86l1-13 5-55a9 9 0 0 0-19-1Zm49-1 1 27c2 19 6 38 7 59 3 28 4 56 8 85l6 36c1 5 5 8 10 7s8-5 7-10l-3-19-3-28-6-73c-1-20-5-39-7-59l-1-24a9 9 0 1 0-19-1Z" fill="#8d3c1e"/><path d="M3273 3382c20 12 28 25 31 39 4 15 1 32 0 50a188 188 0 0 0 3 37c0 5 5 8 9 7 5-1 9-5 8-10a162 162 0 0 1-1-33c1-20 3-38 0-55-4-18-15-35-40-51a9 9 0 1 0-10 16Z" fill="#8d3c1e"/><path d="M3378 3532c-55-20-126-24-179 3-57 28-59 86-1 115 50 25 115 24 166 1 41-19 65-62 31-101" fill="#da7652"/><path d="m3275 3601 1-1 8-3a6 6 0 1 0-1-12c-6 0-12 3-16 6-3 2-5 6-5 9-1 4 2 10 12 15 9 5 26 3 35-3 4-3 7-8 7-13 1-4 0-8-4-13-7-9-17-15-28-16-16-3-33 0-45 7-9 5-15 12-18 19-3 9-2 18 6 27 9 10 23 15 40 16 21 2 46-3 60-10 9-4 18-10 23-18 5-6 7-13 5-22-2-7-6-13-11-19-8-7-17-12-26-15-16-6-34-9-51-9-19 1-36 5-51 14-9 6-19 14-25 24-4 8-6 17-5 25 1 4 4 6 7 5 3 0 5-3 5-7-1-7 2-14 6-20 5-7 12-12 19-16 12-8 28-11 44-12a117 117 0 0 1 65 18c5 4 9 9 10 15s-1 11-4 15l-16 11c-13 6-35 10-54 9-13-2-25-5-32-13-4-4-5-9-3-13 2-5 6-9 12-12 8-5 20-8 31-7 10 0 20 3 26 11 1 3 2 5 1 6 0 2-3 3-5 4-6 3-14 3-19 0l-4-2Z" fill="#bb5834"/><path d="M3174 3324c-23 116-42 189-31 286" fill="#8d3c1e"/><path d="M3148 3319c-14 68-27 121-32 172-2 21-4 41-3 61s6 39 11 60a20 20 0 0 0 39-5c0-19 2-37 4-55 1-28 3-54 7-82 7-42 16-87 27-141a27 27 0 0 0-53-10Z" fill="#1f1d33"/><path d="M3341 3309c32 80 71 201 73 270" fill="#8d3c1e"/><path d="M3316 3319a1640 1640 0 0 1 64 196c6 24 12 46 14 65a20 20 0 0 0 41-2 577 577 0 0 0-15-116c-15-56-36-116-55-163a27 27 0 0 0-49 20Z" fill="#1f1d33"/><path d="M3277 3486c-50 0-94 16-122 39a86 86 0 0 0-33 66c0 24 12 47 33 65 28 24 72 40 122 40s95-16 122-40c21-18 33-41 33-65 0-25-12-48-33-66-27-23-72-39-122-39Zm0 41c39 0 74 12 95 30 11 9 19 21 19 34 0 12-8 24-19 34-21 18-56 29-95 29s-73-11-95-29c-11-10-18-22-18-34 0-13 7-25 18-34 22-18 56-30 95-30Z" fill="#1f1d33"/><path d="M3381 2835c-31-40-64-84-67-136 0-21 2-42 4-62l5-24v-3c-76-13-170 131-189 196l-19 79a574 574 0 0 0-8 41v1c-18-32-22-50-52-76l-20-17c-21 33-21 72-30 109-37 149-51 250 86 351 45 33 115 49 170 44 186-19 279-99 284-284 2-63-7-129-35-186-15-30-29-47-29-47-34 9-54 45-67 75l-33-61Z" fill="#ff5924"/><path d="M3422 3259c59-55 76-139 71-217-2-24-8-47-14-71a236 236 0 0 1-5-30v-5c-6 4-10 14-13 19-19 34-22 94-65 107-29 9-45-23-50-47-9-37 6-76-8-113-24-64-67-81-75-160 0-2-3 2-4 4-7 5-12 12-17 19-14 17-26 36-34 57-28 65-15 142-52 203l-29 42c-5-3-44-81-56-111v5a343 343 0 0 1-6 70c-10 53-26 113-1 164 56 113 229 132 333 76" fill="#fe932b"/><path d="M3339 3290c84-28 122-118 120-201 0-11 2-49-2-56-1-3-3 6-5 10l-9 16c-10 19-19 36-33 51-26 28-68 12-87-16-39-58-2-136-39-202l-30-48c-2-2-2-9-5-8s-18 49-20 57c-16 64 7 132-23 193-10 20-40 81-71 69-17-7-29-25-36-41l-7-17c-1-4 0-17-3-14-2 3-3 19-3 20-3 37 3 71 23 103 44 69 84 101 171 94 19-2 42-3 61-10" fill="#ffd02c"/><path d="m3402 3006 11-28 10-19 11-18 10-21 24-54 15-36c6-18 10-36 11-57a26 26 0 0 0-53-1c0 22-4 41-12 59-9 22-25 40-36 61-6 10-11 20-15 31l-5 25c-1 19 0 38 7 59a11 11 0 0 0 22-1Z" fill="#1f1d33"/><path d="M3054 2877a250 250 0 0 1 41 80 12 12 0 0 0 25 0c2-26-7-60-22-93-15-32-37-60-59-78-9-7-17-6-22-5-9 1-16 7-21 18-1 3-2 8-1 14 0 2 5 8 2 9h-1v-2 2l1 8-1 36a554 554 0 0 1-28 113c-37 102-30 196 16 265 43 67 123 112 238 117a610 610 0 0 0 140-11 442 442 0 0 0 107-44c82-51 116-127 121-211 7-115-43-246-94-337a29 29 0 0 0-51 28c46 83 93 201 87 306-4 65-30 125-94 164a284 284 0 0 1-91 36 548 548 0 0 1-123 9c-90-4-155-37-190-90-35-55-38-130-9-211a587 587 0 0 0 29-123Zm-3-68c1-4 1-8-2-6-2 0 0 3 2 6Z" fill="#1f1d33"/><path d="M3289 2652a339 339 0 0 0 8 88c9 27 23 52 39 77 13 21 27 42 35 65 6 16 9 33 5 53a25 25 0 0 0 50 10c7-29 4-55-4-81-9-26-23-51-37-76-13-21-25-42-31-65-4-11-5-24-6-37s0-27 1-40l4-24 2-8-2 5s5-11 5-15c0-6-1-12-4-17-4-7-11-14-24-15-15-1-32 4-50 13a439 439 0 0 0-194 281l-2 22a202 202 0 0 0 12 70 11 11 0 0 0 22-1c2-11 6-20 9-30l8-26 6-17a388 388 0 0 1 148-232Z" fill="#1f1d33"/></svg></svg></g><defs><clipPath id="a"><rect width="1000" height="1000" rx="250" ry="250"/></clipPath></defs></svg>