<svg xmlns="http://www.w3.org/2000/svg">
  <symbol id="git-merge" viewBox="0 0 24 24" fill="none" stroke="currentColor">
    <path stroke="none" d="M0 0h24v24H0z" fill="none"/>
    <path d="M7 18m-2 0a2 2 0 1 0 4 0a2 2 0 1 0 -4 0" />
    <path d="M7 6m-2 0a2 2 0 1 0 4 0a2 2 0 1 0 -4 0" />
    <path d="M17 12m-2 0a2 2 0 1 0 4 0a2 2 0 1 0 -4 0" />
    <path d="M7 8l0 8" />
    <path d="M7 8a4 4 0 0 0 4 4h4" />
  </symbol>
  <symbol id="tag" viewBox="0 0 24 24" fill="none" stroke="currentColor">
    <path stroke="none" d="M0 0h24v24H0z" fill="none"/>
    <path d="M7.5 7.5m-1 0a1 1 0 1 0 2 0a1 1 0 1 0 -2 0" />
    <path d="M3 6v5.172a2 2 0 0 0 .586 1.414l7.71 7.71a2.41 2.41 0 0 0 3.408 0l5.592 -5.592a2.41 2.41 0 0 0 0 -3.408l-7.71 -7.71a2 2 0 0 0 -1.414 -.586h-5.172a3 3 0 0 0 -3 3z" />
  </symbol>
  <symbol id="chevron-right" viewBox="0 0 24 24" fill="none" stroke="currentColor">
    <path stroke="none" d="M0 0h24v24H0z" fill="none"/>
    <path d="M9 6l6 6l-6 6" />
  </symbol>
</svg>
