<svg xmlns="http://www.w3.org/2000/svg">
  <symbol id="user-search" width="24" height="24" viewBox="0 0 24 24" fill="none" stroke="currentColor"
          stroke-width="2" stroke-linecap="round" stroke-linejoin="round">
    <path stroke="none" d="M0 0h24v24H0z" fill="none"/>
    <path d="M8 7a4 4 0 1 0 8 0a4 4 0 0 0 -8 0"/>
    <path d="M6 21v-2a4 4 0 0 1 4 -4h1.5"/>
    <path d="M18 18m-3 0a3 3 0 1 0 6 0a3 3 0 1 0 -6 0"/>
    <path d="M20.2 20.2l1.8 1.8"/>
  </symbol>
  <symbol id="git-merge" viewBox="0 0 24 24" fill="none" stroke="currentColor">
    <path stroke="none" d="M0 0h24v24H0z" fill="none"/>
    <path d="M7 18m-2 0a2 2 0 1 0 4 0a2 2 0 1 0 -4 0"/>
    <path d="M7 6m-2 0a2 2 0 1 0 4 0a2 2 0 1 0 -4 0"/>
    <path d="M17 12m-2 0a2 2 0 1 0 4 0a2 2 0 1 0 -4 0"/>
    <path d="M7 8l0 8"/>
    <path d="M7 8a4 4 0 0 0 4 4h4"/>
  </symbol>
  <symbol id="tag" viewBox="0 0 24 24" fill="none" stroke="currentColor">
    <path stroke="none" d="M0 0h24v24H0z" fill="none"/>
    <path d="M7.5 7.5m-1 0a1 1 0 1 0 2 0a1 1 0 1 0 -2 0"/>
    <path
      d="M3 6v5.172a2 2 0 0 0 .586 1.414l7.71 7.71a2.41 2.41 0 0 0 3.408 0l5.592 -5.592a2.41 2.41 0 0 0 0 -3.408l-7.71 -7.71a2 2 0 0 0 -1.414 -.586h-5.172a3 3 0 0 0 -3 3z"/>
  </symbol>
  <symbol id="chevron-right" viewBox="0 0 24 24" fill="none" stroke="currentColor">
    <path stroke="none" d="M0 0h24v24H0z" fill="none"/>
    <path d="M9 6l6 6l-6 6"/>
  </symbol>
  <symbol id="flame" viewBox="0 0 24 24" fill="none" stroke="currentColor">
    <path stroke="none" d="M0 0h24v24H0z" fill="none"/>
    <path
      d="M12 12c2 -2.96 0 -7 -1 -8c0 3.038 -1.773 4.741 -3 6c-1.226 1.26 -2 3.24 -2 5a6 6 0 1 0 12 0c0 -1.532 -1.056 -3.94 -2 -5c-1.786 3 -2.791 3 -4 2z"/>
  </symbol>
  <symbol id="eye" viewBox="0 0 24 24" fill="none" stroke="currentColor">
    <path stroke="none" d="M0 0h24v24H0z" fill="none"/>
    <path d="M10 12a2 2 0 1 0 4 0a2 2 0 0 0 -4 0"/>
    <path d="M21 12c-2.4 4 -5.4 6 -9 6c-3.6 0 -6.6 -2 -9 -6c2.4 -4 5.4 -6 9 -6c3.6 0 6.6 2 9 6"/>
  </symbol>
  <symbol id="notes" viewBox="0 0 24 24" fill="none" stroke="currentColor">
    <path stroke="none" d="M0 0h24v24H0z" fill="none"/>
    <path d="M5 3m0 2a2 2 0 0 1 2 -2h10a2 2 0 0 1 2 2v14a2 2 0 0 1 -2 2h-10a2 2 0 0 1 -2 -2z"/>
    <path d="M9 7l6 0"/>
    <path d="M9 11l6 0"/>
    <path d="M9 15l4 0"/>
  </symbol>
  <symbol id="refresh" viewBox="0 0 24 24" fill="none" stroke="currentColor">
    <path stroke="none" d="M0 0h24v24H0z" fill="none"/>
    <path d="M20 11a8.1 8.1 0 0 0 -15.5 -2m-.5 -4v4h4"/>
    <path d="M4 13a8.1 8.1 0 0 0 15.5 2m.5 4v-4h-4"/>
  </symbol>
  <symbol id="alert-triangle" viewBox="0 0 24 24" fill="currentColor">
    <path stroke="none" d="M0 0h24v24H0z" fill="none"/>
    <path
      d="M12 1.67c.955 0 1.845 .467 2.39 1.247l.105 .16l8.114 13.548a2.914 2.914 0 0 1 -2.307 4.363l-.195 .008h-16.225a2.914 2.914 0 0 1 -2.582 -4.2l.099 -.185l8.11 -13.538a2.914 2.914 0 0 1 2.491 -1.403zm.01 13.33l-.127 .007a1 1 0 0 0 0 1.986l.117 .007l.127 -.007a1 1 0 0 0 0 -1.986l-.117 -.007zm-.01 -7a1 1 0 0 0 -.993 .883l-.007 .117v4l.007 .117a1 1 0 0 0 1.986 0l.007 -.117v-4l-.007 -.117a1 1 0 0 0 -.993 -.883z"/>
  </symbol>
  <symbol id="alert-octagon" viewBox="0 0 24 24" fill="currentColor">
    <path stroke="none" d="M0 0h24v24H0z" fill="none"/>
    <path
      d="M14.897 1a4 4 0 0 1 2.664 1.016l.165 .156l4.1 4.1a4 4 0 0 1 1.168 2.605l.006 .227v5.794a4 4 0 0 1 -1.016 2.664l-.156 .165l-4.1 4.1a4 4 0 0 1 -2.603 1.168l-.227 .006h-5.795a3.999 3.999 0 0 1 -2.664 -1.017l-.165 -.156l-4.1 -4.1a4 4 0 0 1 -1.168 -2.604l-.006 -.227v-5.794a4 4 0 0 1 1.016 -2.664l.156 -.165l4.1 -4.1a4 4 0 0 1 2.605 -1.168l.227 -.006h5.793zm-2.887 14l-.127 .007a1 1 0 0 0 0 1.986l.117 .007l.127 -.007a1 1 0 0 0 0 -1.986l-.117 -.007zm-.01 -8a1 1 0 0 0 -.993 .883l-.007 .117v4l.007 .117a1 1 0 0 0 1.986 0l.007 -.117v-4l-.007 -.117a1 1 0 0 0 -.993 -.883z"/>
  </symbol>
  <symbol id="info-circle" viewBox="0 0 24 24" fill="currentColor">
    <path stroke="none" d="M0 0h24v24H0z" fill="none"/>
    <path
      d="M12 2c5.523 0 10 4.477 10 10a10 10 0 0 1 -19.995 .324l-.005 -.324l.004 -.28c.148 -5.393 4.566 -9.72 9.996 -9.72zm0 9h-1l-.117 .007a1 1 0 0 0 0 1.986l.117 .007v3l.007 .117a1 1 0 0 0 .876 .876l.117 .007h1l.117 -.007a1 1 0 0 0 .876 -.876l.007 -.117l-.007 -.117a1 1 0 0 0 -.764 -.857l-.112 -.02l-.117 -.006v-3l-.007 -.117a1 1 0 0 0 -.876 -.876l-.117 -.007zm.01 -3l-.127 .007a1 1 0 0 0 0 1.986l.117 .007l.127 -.007a1 1 0 0 0 0 -1.986l-.117 -.007z"/>
  </symbol>
  <symbol id="rosette-discount-check" viewBox="0 0 24 24" fill="currentColor">
    <path stroke="none" d="M0 0h24v24H0z" fill="none"/>
    <path
      d="M12.01 2.011a3.2 3.2 0 0 1 2.113 .797l.154 .145l.698 .698a1.2 1.2 0 0 0 .71 .341l.135 .008h1a3.2 3.2 0 0 1 3.195 3.018l.005 .182v1c0 .27 .092 .533 .258 .743l.09 .1l.697 .698a3.2 3.2 0 0 1 .147 4.382l-.145 .154l-.698 .698a1.2 1.2 0 0 0 -.341 .71l-.008 .135v1a3.2 3.2 0 0 1 -3.018 3.195l-.182 .005h-1a1.2 1.2 0 0 0 -.743 .258l-.1 .09l-.698 .697a3.2 3.2 0 0 1 -4.382 .147l-.154 -.145l-.698 -.698a1.2 1.2 0 0 0 -.71 -.341l-.135 -.008h-1a3.2 3.2 0 0 1 -3.195 -3.018l-.005 -.182v-1a1.2 1.2 0 0 0 -.258 -.743l-.09 -.1l-.697 -.698a3.2 3.2 0 0 1 -.147 -4.382l.145 -.154l.698 -.698a1.2 1.2 0 0 0 .341 -.71l.008 -.135v-1l.005 -.182a3.2 3.2 0 0 1 3.013 -3.013l.182 -.005h1a1.2 1.2 0 0 0 .743 -.258l.1 -.09l.698 -.697a3.2 3.2 0 0 1 2.269 -.944zm3.697 7.282a1 1 0 0 0 -1.414 0l-3.293 3.292l-1.293 -1.292l-.094 -.083a1 1 0 0 0 -1.32 1.497l2 2l.094 .083a1 1 0 0 0 1.32 -.083l4 -4l.083 -.094a1 1 0 0 0 -.083 -1.32z"/>
  </symbol>
  <symbol id="x" viewBox="0 0 24 24" fill="none" stroke="currentColor">
    <path stroke="none" d="M0 0h24v24H0z" fill="none"/>
    <path d="M18 6l-12 12"/>
    <path d="M6 6l12 12"/>
  </symbol>
  <symbol id="square-rounded-plus" viewBox="0 0 24 24" fill="none" stroke="currentColor">
    <path stroke="none" d="M0 0h24v24H0z" fill="none"/>
    <path d="M12 3c7.2 0 9 1.8 9 9s-1.8 9 -9 9s-9 -1.8 -9 -9s1.8 -9 9 -9z"/>
    <path d="M15 12h-6"/>
    <path d="M12 9v6"/>
  </symbol>
  <symbol id="clipboard-text" viewBox="0 0 24 24" fill="none" stroke="currentColor">
    <path stroke="none" d="M0 0h24v24H0z" fill="none"/>
    <path d="M9 5h-2a2 2 0 0 0 -2 2v12a2 2 0 0 0 2 2h10a2 2 0 0 0 2 -2v-12a2 2 0 0 0 -2 -2h-2"/>
    <path d="M9 3m0 2a2 2 0 0 1 2 -2h2a2 2 0 0 1 2 2v0a2 2 0 0 1 -2 2h-2a2 2 0 0 1 -2 -2z"/>
    <path d="M9 12h6"/>
    <path d="M9 16h6"/>
  </symbol>
  <symbol id="search" viewBox="0 0 24 24" fill="none" stroke="currentColor">
    <path stroke="none" d="M0 0h24v24H0z"/>
    <path d="M10 10m-7 0a7 7 0 1 0 14 0a7 7 0 1 0 -14 0"/>
    <path d="M21 21l-6 -6"/>
  </symbol>
  <symbol id="search-off" viewBox="0 0 24 24" fill="none" stroke="currentColor">
    <path stroke="none" d="M0 0h24v24H0z"/>
    <path d="M5.039 5.062a7 7 0 0 0 9.91 9.89m1.584 -2.434a7 7 0 0 0 -9.038 -9.057"/>
    <path d="M3 3l18 18"/>
  </symbol>
</svg>
